<?xml version="1.0" encoding="utf-8"?>
<!-- Generator: Adobe Illustrator 16.0.3, SVG Export Plug-In . SVG Version: 6.00 Build 0)  -->
<!DOCTYPE svg PUBLIC "-//W3C//DTD SVG 1.1//EN" "http://www.w3.org/Graphics/SVG/1.1/DTD/svg11.dtd">
<svg version="1.1" id="Layer_1" xmlns="http://www.w3.org/2000/svg" xmlns:xlink="http://www.w3.org/1999/xlink" x="0px" y="0px"
	 width="16px" height="16px" viewBox="0 0 16 16" enable-background="new 0 0 16 16" xml:space="preserve">
<g>
	<line fill="none" stroke="#FF6600" stroke-width="1.1454" stroke-miterlimit="10" x1="5.946" y1="3.259" x2="5.884" y2="0.91"/>
	
		<line fill="none" stroke="#FF6600" stroke-width="1.1454" stroke-miterlimit="10" x1="10.848" y1="15.091" x2="10.785" y2="12.742"/>
	<line fill="none" stroke="#FF6600" stroke-width="1.1454" stroke-miterlimit="10" x1="3.624" y1="10.42" x2="1.275" y2="10.482"/>
	<line fill="none" stroke="#FF6600" stroke-width="1.1454" stroke-miterlimit="10" x1="3.303" y1="6.357" x2="1.598" y2="4.741"/>
	
		<line fill="none" stroke="#FF6600" stroke-width="1.1454" stroke-miterlimit="10" x1="15.134" y1="11.259" x2="13.429" y2="9.643"/>
	<line fill="none" stroke="#FF6600" stroke-width="1.1454" stroke-miterlimit="10" x1="6.724" y1="13.063" x2="5.107" y2="14.769"/>
	<line fill="none" stroke="#FF6600" stroke-width="1.1454" stroke-miterlimit="10" x1="11.624" y1="1.232" x2="10.008" y2="2.937"/>
	<line fill="none" stroke="#FF6600" stroke-width="1.1454" stroke-miterlimit="10" x1="7.945" y1="2.693" x2="8.786" y2="0.5"/>
	<line fill="none" stroke="#FF6600" stroke-width="1.1454" stroke-miterlimit="10" x1="7.945" y1="15.5" x2="8.786" y2="13.307"/>
	<line fill="none" stroke="#FF6600" stroke-width="1.1454" stroke-miterlimit="10" x1="3.06" y1="8.421" x2="0.866" y2="7.58"/>
	<line fill="none" stroke="#FF6600" stroke-width="1.1454" stroke-miterlimit="10" x1="4.316" y1="4.545" x2="3.359" y2="2.399"/>
	
		<line fill="none" stroke="#FF6600" stroke-width="1.1454" stroke-miterlimit="10" x1="13.372" y1="13.602" x2="12.415" y2="11.455"/>
	<line fill="none" stroke="#FF6600" stroke-width="1.1454" stroke-miterlimit="10" x1="4.911" y1="12.05" x2="2.766" y2="13.007"/>
</g>
<g>
	<g>
		<line fill="none" stroke="#FF6600" stroke-width="0.5727" stroke-miterlimit="10" x1="13.877" y1="5.919" x2="11.871" y2="8.92"/>
		<circle fill="none" stroke="#FF6600" stroke-width="0.5727" stroke-miterlimit="10" cx="11.438" cy="9.637" r="0.845"/>
		<circle fill="none" stroke="#FF6600" stroke-width="0.5727" stroke-miterlimit="10" cx="14.325" cy="5.275" r="0.846"/>
	</g>
	<g>
		<line fill="none" stroke="#FF6600" stroke-width="0.5727" stroke-miterlimit="10" x1="13.363" y1="5.234" x2="9.762" y2="4.998"/>
		<circle fill="none" stroke="#FF6600" stroke-width="0.5727" stroke-miterlimit="10" cx="8.924" cy="4.982" r="0.846"/>
	</g>
</g>
</svg>
